/* XPM */
static char *Xchange64[] = {
/* columns rows colors chars-per-pixel */
"64 64 256 2 ",
"   c #041E5F",
".  c #042A68",
"X  c #1C2968",
"o  c #253C74",
"O  c #282A69",
"+  c #4B0055",
"@  c #580357",
"#  c #650052",
"$  c #6A005E",
"%  c #690657",
"&  c #5C1061",
"*  c #6C146C",
"=  c #7A1278",
"-  c #681169",
";  c #5D257A",
":  c #64226B",
">  c #783C7D",
",  c #03437E",
"<  c #7A407F",
"1  c #F14B1F",
"2  c #CE5B33",
"3  c #F04E23",
"4  c #F24E38",
"5  c #EE552A",
"6  c #F26022",
"7  c #F57E21",
"8  c #84095C",
"9  c #960D5F",
"0  c #AF0459",
"q  c #BA0056",
"w  c #B2025B",
"e  c #BB005D",
"r  c #AB3B5D",
"t  c #900F60",
"y  c #95076C",
"u  c #9D016D",
"i  c #97086C",
"p  c #9A136C",
"a  c #8F0970",
"s  c #9E0875",
"d  c #900970",
"f  c #8B1871",
"g  c #90146D",
"h  c #A4016F",
"j  c #AA0468",
"k  c #BC0561",
"l  c #B30863",
"z  c #B60761",
"x  c #A70975",
"c  c #AE157B",
"v  c #9C237F",
"b  c #893B7A",
"n  c #CE065E",
"m  c #D00955",
"M  c #ED174B",
"N  c #EC0F5E",
"B  c #ED135F",
"V  c #E61652",
"C  c #C51578",
"Z  c #C7187D",
"A  c #CE1578",
"S  c #CC166B",
"D  c #ED0F69",
"F  c #ED1260",
"G  c #E5116D",
"H  c #E61664",
"J  c #C9327C",
"K  c #EE2D7E",
"L  c #EE2C67",
"P  c #F14742",
"I  c #F04D43",
"U  c #F35142",
"Y  c #EB4644",
"T  c #F14771",
"R  c #3D9278",
"E  c #F99E1D",
"W  c #F5831F",
"Q  c #FCBC0F",
"!  c #F9A514",
"~  c #FAA61A",
"^  c #FAA819",
"/  c #FCB612",
"(  c #F58220",
")  c #FFD503",
"_  c #F0896C",
"`  c #3E2A8C",
"'  c #2E3192",
"]  c #223A93",
"[  c #422F91",
"{  c #48298C",
"}  c #71298D",
"|  c #6F2B91",
" . c #702C92",
".. c #613996",
"X. c #733093",
"o. c #014B84",
"O. c #044A87",
"+. c #01548B",
"@. c #005D92",
"#. c #194495",
"$. c #006E9E",
"%. c #0C4DA2",
"&. c #104AA0",
"*. c #0857A2",
"=. c #1E51A4",
"-. c #224DA2",
";. c #016DA1",
":. c #1D67A7",
">. c #0071A2",
",. c #0077AB",
"<. c #007CAE",
"1. c #0077B2",
"2. c #007DB0",
"3. c #445787",
"4. c #4B4E83",
"5. c #7A4080",
"6. c #79419C",
"7. c #5A5CA9",
"8. c #6F5DAA",
"9. c #7C52A4",
"0. c #735AA8",
"q. c #6E60AB",
"w. c #7868AF",
"e. c #9F1F85",
"r. c #891F86",
"t. c #AF1B87",
"y. c #A51983",
"u. c #B11E85",
"i. c #B41D8D",
"p. c #82278C",
"a. c #882189",
"s. c #92278F",
"d. c #9A258F",
"f. c #92288F",
"g. c #812990",
"h. c #852790",
"j. c #992590",
"k. c #912890",
"l. c #8C3798",
"z. c #A8208E",
"x. c #A72993",
"c. c #B72691",
"v. c #B5208F",
"b. c #C21981",
"n. c #C93B83",
"m. c #E22F81",
"M. c #83479E",
"N. c #9D5B90",
"B. c #BD4398",
"V. c #934BA1",
"C. c #8F58A6",
"Z. c #9264AC",
"A. c #9E6EB3",
"S. c #8E78B7",
"D. c #8E74B5",
"F. c #937CB9",
"G. c #9775B6",
"H. c #BA64A5",
"J. c #BE71AC",
"K. c #A97EBA",
"L. c #B27097",
"P. c #C7478D",
"I. c #D84F8E",
"U. c #D5629C",
"Y. c #C66E81",
"T. c #F06691",
"R. c #CA66AD",
"E. c #DC74AA",
"W. c #CC65B1",
"Q. c #D579B9",
"!. c #F168A5",
"~. c #F167A4",
"^. c #E070AC",
"/. c #E278AA",
"(. c #F172AC",
"). c #DC599E",
"_. c #00869A",
"`. c #00A48F",
"'. c #00A88E",
"]. c #00A996",
"[. c #02A999",
"{. c #0EAD9A",
"}. c #00A698",
"|. c #10AE99",
" X c #0394A7",
".X c #0088BE",
"XX c #0884B6",
"oX c #3498BF",
"OX c #1FB4A4",
"+X c #3ABBA3",
"@X c #31B7A9",
"#X c #32BAAB",
"$X c #2AB7A6",
"%X c #499981",
"&X c #47BFA5",
"*X c #48BFA5",
"=X c #45BFA8",
"-X c #43BEB2",
";X c #51C2AF",
":X c #55C5B9",
">X c #00ACD1",
",X c #00A0DE",
"<X c #21B6CD",
"1X c #26B6C1",
"2X c #00A6E4",
"3X c #00ADEE",
"4X c #00AFF0",
"5X c #65C7C4",
"6X c #69C8C7",
"7X c #6AC8C8",
"8X c #74D0C6",
"9X c #A982BE",
"0X c #B482AB",
"qX c #F5809C",
"wX c #DAAA95",
"eX c #FAA187",
"rX c #C98FB8",
"tX c #DE85B2",
"yX c #D580BF",
"uX c #C795BD",
"iX c #E28CB5",
"pX c #F590AA",
"aX c #F7C6BF",
"sX c #AD87C1",
"dX c #B896C8",
"fX c #9DA9D1",
"gX c #B5B3CF",
"hX c #DA90C7",
"jX c #E69FC3",
"kX c #CCB3CD",
"lX c #C3A8D2",
"zX c #D2BCD6",
"xX c #C1A3CF",
"cX c #E8A7C7",
"vX c #E3ADD3",
"bX c #E9B8D6",
"nX c #F5B2CD",
"mX c #99DAD7",
"MX c #86D0D4",
"NX c #BCC4D5",
"BX c #B3D7CE",
"VX c #99CBE0",
"CX c #B6D0E4",
"ZX c #BCE8E3",
"AX c #D7C7DC",
"SX c #EFC5D8",
"DX c #DCD6E6",
"FX c #EDC8E3",
"GX c #E9D9E6",
"HX c #E7DBE8",
"JX c #F2D2E6",
"KX c #DCE0E9",
"LX c #CEEFEB",
"PX c #F6EBF3",
"IX c #FCF6FA",
"UX c None",
/* pixels */
"UXUXUXUXUXUXUXUXUXUXUXUXUXUXUXUXUXUXUXUXUXUXUXUXUXUXUXUXUXUXUXUXUXUXUXUXUXUXUXUXUXUXUXUXUXUXUXUXUXUXUXUXUXUXUXUXUXUXUXUXUXUXUXUX",
"UXUXUXUXUXUXUXUXUXUXUXUXUXUXUXUXUXUXUXUXUXUXUXUXUXUXUXUXUXUXUXUXUXUXUXUXUXUXUXUXUXUXUXUXUXUXUXUXUXUXUXUXUXUXUXUXUXUXUXUXUXUXUXUX",
"UXUXUXUXUXUXUXUXUXUXUXUXUXUXUXUXUXUXUXUXUXUXUXUXUXUXUXUXUXUXUX(.(.UXUXUXUXUXUXUXUXUXUXUXUXUXUXUXUXUXUXUXUXUXUXUXUXUXUXUXUXUXUXUX",
"UXUXUXUXUXUXUXUXUXUXUXUXUXUXUXUXUXUXUXUXUXUXUXUXUXUXUXUXUXUX(.(.(.(.UXUXUXUXUXUXUXUXUXUXUXUXUXUXUXUXUXUXUXUXUXUXUXUXUXUXUXUXUXUX",
"UXUXUXUXUXUXUXUXUXUXUXUXUXUXUXUXUXUXUXUXUXUXUXUXUXUXUXUXUX(.(.(.(.(.(.UXUXUXUXUXUXUXUXUXUXUXUXUXUXUXUXUXUXUXUXUXUXUXUXUXUXUXUXUX",
"UXUXUXUXUXUXUXUXUXUXUXUXUXUXUXUXUXUXUXUXUXUXUXUXUXUXUXUX(.(.(.(.(.(.(.(.UXUXUXUXUXUXUXUXUXUXUXUXUXUXUXUXUXUXUXUXUXUXUXUXUXUXUXUX",
"UXUXUXUXUXUXUXUXUXUXUXUXUXUXUXUXUXUXUXUXUXUXUXUXUXUXUX^.(.(.(.(.(.(.(.(.!.UXUXUXUXUXUXUXUXUXUXUXUXUXUXUXUXUXUXUXUXUXUXUXUXUXUXUX",
"UXUXUXUXUXUXUXUXUXUXUXUXUXUXUXUXUXUXUXUXUXUXUXUXUXUXq.Z.^.(.(.(.(.(.(.!.K D UXUXUXUXUXUXUXUXUXUXUXUXUXUXUXUXUXUXUXUXUXUXUXUXUXUX",
"UXUXUXUXUXUXUXUXUXUXUXUXUXUXUXUXUXUXUXUXUXUXUXUXUXq.q.q.Z.^.(.(.(.(.!.K D D D UXUXUXUXUXUXUXUXUXUXUXUXUXUXUXUXUXUXUXUXUXUXUXUXUX",
"UXUXUXUXUXUXUXUXUXUXUXUXUXUXUXUXUXUXUXUXUXUXUXUXq.q.q.q.q.Z.^.(.(.!.K D D D D D UXUXUXUXUXUXUXUXUXUXUXUXUXUXUXUXUXUXUXUXUXUXUXUX",
"UXUXUXUXUXUXUXUXUXUXUXUXUXUXUXUXUXUXUXUXUXUXUXq.q.q.q.q.q.q.Z.^.!.K D D D D D D D UXUXUXUXUXUXUXUXUXUXUXUXUXUXUXUXUXUXUXUXUXUXUX",
"UXUXUXUXUXUXUXUXUXUXUXUXUXUXUXUXUXUXUXUXUXUX7.q.q.q.q.q.q.q.8.Z.m.D D D D D D D D G UXUXUXUXUXUXUXUXUXUXUXUXUXUXUXUXUXUXUXUXUXUX",
"UXUXUXUXUXUXUXUXUXUXUXUXUXUXUXUXUXUXUXUXUX%.=.7.q.q.q.q.8.q.0.l.u.G D D D D D D G A Z UXUXUXUXUXUXUXUXUXUXUXUXUXUXUXUXUXUXUXUXUX",
"UXUXUXUXUXUXUXUXUXUXUXUXUXUXUXUXUXUXUXUX%.%.%.=.7.q.q.q.8.0.l.d.j.u.G D D D D G A Z Z Z UXUXUXUXUXUXUXUXUXUXUXUXUXUXUXUXUXUXUXUX",
"UXUXUXUXUXUXUXUXUXUXUXUXUXUXUXUXUXUXUX%.%.%.%.%.=.7.q.q.0.l.d.d.j.j.u.G D D G A Z Z Z Z Z UXUXUXUXUXUXUXUXUXUXUXUXUXUXUXUXUXUXUX",
"UXUXUXUXUXUXUXUXUXUXUXUXUXUXUXUXUXUX%.%.%.%.%.%.%.-.7.0.l.d.d.d.j.j.j.u.G G A Z Z Z Z Z Z Z UXUXUXUXUXUXUXUXUXUXUXUXUXUXUXUXUXUX",
"UXUXUXUXUXUXUXUXUXUXUXUXUXUXUXUXUX*.%.%.%.%.%.%.%.%.-.6.d.d.d.d.d.d.d.j.c A Z Z Z Z Z Z Z Z b.UXUXUXUXUXUXUXUXUXUXUXUXUXUXUXUXUX",
"UXUXUXUXUXUXUXUXUXUXUXUXUXUXUXUX>.;.*.%.%.%.%.%.&.&.] [ h.d.d.d.d.d.j.e.l k C Z Z Z Z Z Z b.i.i.UXUXUXUXUXUXUXUXUXUXUXUXUXUXUXUX",
"UXUXUXUXUXUXUXUXUXUXUXUXUXUXUX>.>.>.;.*.%.%.%.%.&.] ' ' [ h.d.d.d.j.e.l q q k C Z Z Z Z b.i.i.i.i.UXUXUXUXUXUXUXUXUXUXUXUXUXUXUX",
"UXUXUXUXUXUXUXUXUXUXUXUXUXUX>.>.>.>.>.;.*.%.%.&.] ' ' ' ' [ h.d.j.e.z q q q q k C Z Z Z i.i.i.i.i.i.UXUXUXUXUXUXUXUXUXUXUXUXUXUX",
"UXUXUXUXUXUXUXUXUXUXUXUXUX>.>.>.>.>.>.>.;.*.&.] ' ' ' ' ' ' [ h.e.l q q q q q q k C b.i.i.i.i.i.i.v.i.UXUXUXUXUXUXUXUXUXUXUXUXUX",
"UXUXUXUXUXUXUXUXUXUXUXUX_.>.>.>.>.>.>.>.>.;.#.' ' ' ' ' ' ' ' { l q q q q q q q q l u.v.i.i.i.i.i.i.i.z.UXUXUXUXUXUXUXUXUXUXUXUX",
"UXUXUXUXUXUXUXUXUXUXUX'.'._.>.>.>.>.>.>.;.@.O.] ' ' ' ' ' ' ` = i 0 q q q q q q w 9 p u.i.i.i.i.i.i.z.j.f.UXUXUXUXUXUXUXUXUXUXUX",
"UXUXUXUXUXUXUXUXUXUX'.'.'.`._.;.>.>.>.;.@.+.+.+.] ' ' ' ' ` = d a i 0 q q q q 0 9 t t p t.i.i.i.i.z.s.f.f.f.UXUXUXUXUXUXUXUXUXUX",
"UXUXUXUXUXUXUXUXUX'.'.'.'.'.'._.>.>.;.@.+.+.+.+.+.] ' ' ` = d d a a y w e q 0 9 t t t t p i.v.i.z.s.s.s.f.f.f.UXUXUXUXUXUXUXUXUX",
"UXUXUXUXUXUXUXUX'.'.'.'.'.'.'.`._.;.@.+.+.+.+.+.+.+.] ` = d d d a a a i w w 9 t t t t t t p i.z.s.f.s.s.f.f.f.f.UXUXUXUXUXUXUXUX",
"UXUXUXUXUXUXUX@X'.'.'.'.'.'.'.'.[.,.+.+.+.+.+.+.+.+.O.; uXH.d d a a H.uXg 8 t t t t t t t t f f.s.s.s.s.f.s.f.f.V.UXUXUXUXUXUXUX",
"UXUXUXUXUXUX6X5X@X'.'.'.'.'.'.[.>X3X1.+.+.+.+.+.+.o.. X gXIXH.d a H.IXkX& @ 8 t t t t t t f h.h.s.s.f.s.s.s.f.V.G.F.UXUXUXUXUXUX",
"UXUXUXUXUX6X6X6X6X@X'.'.'.'.[.>X4X4X3X,.+.+.+.+.o..     o NXIXJ.J.PXzX: + + @ 8 t t t t f p.g.g.h.f.f.f.f.f.V.F.F.F.F.UXUXUXUXUX",
"UXUXUXUX6X6X6X6X7X5X@X'.'.}.>X4X4X3X3X3X1.+.+.o..         o NXIXIXzX: + + + + @ 8 t t f p.g.g.g.p.h.s.f.f.V.G.F.F.F.F.F.UXUXUXUX",
"UXUXUX6X6X6X6X6X7X7X5X@X[.>X3X4X3X4X3X4X2X1.o..             o gXkX: + + + + + + @ 8 f h.g.X.g.g.g.g.p.k.V.F.F.F.F.F.F.F.F.UXUXUX",
"UXUXUX6X6X6X6X6X7X6X7X5X1X3X4X3X4X3X4X3X4X,X+.                4.< + + + + + + + + $ r.g.h.h.g.g.g.g.g.6.D.F.F.F.F.F.F.F.F.UXUXUX",
"UXUXUXUX6X6X6X7X6X6X5X;X=X<X3X4X3X4X4X4X2X.X,.O.            3.KXHX< + + + + + + $ u s a.g.g.h.g.g.g.6.8.w.S.F.F.F.F.F.F.UXUXUXUX",
"UXUXUXUXUX6X6X7X6X5X;X&X&X*X<X3X4X3X4X2X.X<.<.,.,         3.KXPXPXHX< + + + + % u h h s a.g.h.X.g.6.8.q.q.w.S.F.F.F.F.UXUXUXUXUX",
"UXUXUXUXUXUX7X7X5X;X&X&X&X&X=X<X3X4X2X.X1.<.2.2.,.,     3.KXGXb b HXHX< + + $ u h h h h s a.g.g.6.8.q.q.q.q.w.S.F.F.UXUXUXUXUXUX",
"UXUXUXUXUXUXUX5X;X*X&X&X&X&X&X=X<X2X.X<.2.2.2.2.XX,., X AXGXb # # b HXAX& $ h h h h h h h s a.6.8.q.q.q.q.q.q.w.S.UXUXUXUXUXUXUX",
"UXUXUXUXUXUXUXUX&X&X&X*X*X*X*X&X+X X2.2.2.2.2.2._.2.:.; N.b # # # # b N.8 h h h h h h h h h y.9.q.q.q.q.q.q.q.q.UXUXUXUXUXUXUXUX",
"UXUXUXUXUXUXUXUXUX&X&X&X*X*X*X+X|.[. X2.2.2.2.2.2.:...} - # # # # # # 8 w k j h h h h h h y.i.x.9.q.q.q.q.q.q.UXUXUXUXUXUXUXUXUX",
"UXUXUXUXUXUXUXUXUXUX&X&X*X*X+X|.'.{.[. X2.1.XXXX:... .| } * # % % # % k e z k j x x h h t.c.c.i.x.9.q.q.q.q.UXUXUXUXUXUXUXUXUXUX",
"UXUXUXUXUXUXUXUXUXUXUX*X*X+X|.].].8X5X-XMXoXVXCXxXA.sX} A.9X* J.uX8 P.jXS U.I.n.vXvXW.B.bXvXyXv.i.x.9.q.q.UXUXUXUXUXUXUXUXUXUXUX",
"UXUXUXUXUXUXUXUXUXUXUXUX+X|.].].].#XZXLX:XmXfX9.A.9XAXZ.lXdXM.AXSXJ U.IXtXtXE.cXU.P.R.W.FXQ.H.v.i.i.x.9.UXUXUXUXUXUXUXUXUXUXUXUX",
"UXUXUXUXUXUXUXUXUXUXUXUXUX].].].].{.ZXLX$XBXL.}  .G.HXxXDXdXsXbXjXtXU.cXnXJXtXbXJ iXSXyXJXjXW.v.i.i.i.UXUXUXUXUXUXUXUXUXUXUXUXUX",
"UXUXUXUXUXUXUXUXUXUXUXUXUXUX].].].8XmXMXBXwXaXrXlXsXlX| sXxXzXnXnXbXtXiXn.PX^.iXcXpXSX/.FXyXR.v.i.i.UXUXUXUXUXUXUXUXUXUXUXUXUXUX",
"UXUXUXUXUXUXUXUXUXUXUXUXUXUXUX].[.:XOX%X_ 5 _ eXY.M.Z.| C.H.~.D B T.I.P.q P.J S T.qXT L /.yXR.v.i.UXUXUXUXUXUXUXUXUXUXUXUXUXUXUX",
"UXUXUXUXUXUXUXUXUXUXUXUXUXUXUXUX].].R 2 1 3 3 1 3 r | | v H N F N N N n e e m M M M M M M C v.v.UXUXUXUXUXUXUXUXUXUXUXUXUXUXUXUX",
"UXUXUXUXUXUXUXUXUXUXUXUXUXUXUXUXUXR 2 3 3 3 3 3 3 3 r e.H F F F B N B N n m M M M M M M M V Z UXUXUXUXUXUXUXUXUXUXUXUXUXUXUXUXUX",
"UXUXUXUXUXUXUXUXUXUXUXUXUXUXUXUXUXUX3 3 3 3 3 3 3 3 6 Y N F F F B B B B I 4 M M M M M M M M UXUXUXUXUXUXUXUXUXUXUXUXUXUXUXUXUXUX",
"UXUXUXUXUXUXUXUXUXUXUXUXUXUXUXUXUXUXUX3 3 3 3 3 3 6 7 7 P F F F B B B U ~ E 4 M M M M M M UXUXUXUXUXUXUXUXUXUXUXUXUXUXUXUXUXUXUX",
"UXUXUXUXUXUXUXUXUXUXUXUXUXUXUXUXUXUXUXUX5 3 3 3 6 7 ( ( 7 P F F F F I ~ ~ ~ E 4 M M M M UXUXUXUXUXUXUXUXUXUXUXUXUXUXUXUXUXUXUXUX",
"UXUXUXUXUXUXUXUXUXUXUXUXUXUXUXUXUXUXUXUXUX3 3 6 ( ( ( ( ( 7 P F F U E ~ ~ ~ ~ E 4 M M UXUXUXUXUXUXUXUXUXUXUXUXUXUXUXUXUXUXUXUXUX",
"UXUXUXUXUXUXUXUXUXUXUXUXUXUXUXUXUXUXUXUXUXUX6 ( ( ( ( ( ( ( 7 P U E ~ ~ ~ ~ ~ ~ ~ 4 UXUXUXUXUXUXUXUXUXUXUXUXUXUXUXUXUXUXUXUXUXUX",
"UXUXUXUXUXUXUXUXUXUXUXUXUXUXUXUXUXUXUXUXUXUXUX( ( ( ( ( ( ( 7 ! / ^ ~ ~ ~ ~ ~ ~ ~ UXUXUXUXUXUXUXUXUXUXUXUXUXUXUXUXUXUXUXUXUXUXUX",
"UXUXUXUXUXUXUXUXUXUXUXUXUXUXUXUXUXUXUXUXUXUXUXUX( ( ( ( ( ( ! ) ) Q ~ ~ ~ ~ ~ ~ UXUXUXUXUXUXUXUXUXUXUXUXUXUXUXUXUXUXUXUXUXUXUXUX",
"UXUXUXUXUXUXUXUXUXUXUXUXUXUXUXUXUXUXUXUXUXUXUXUXUX( ( ( ( ! ) ) ) ) Q ~ ~ ~ ~ UXUXUXUXUXUXUXUXUXUXUXUXUXUXUXUXUXUXUXUXUXUXUXUXUX",
"UXUXUXUXUXUXUXUXUXUXUXUXUXUXUXUXUXUXUXUXUXUXUXUXUXUX( ( ! ) ) ) ) ) ) Q ~ ~ UXUXUXUXUXUXUXUXUXUXUXUXUXUXUXUXUXUXUXUXUXUXUXUXUXUX",
"UXUXUXUXUXUXUXUXUXUXUXUXUXUXUXUXUXUXUXUXUXUXUXUXUXUXUX! ) ) ) ) ) ) ) ) Q UXUXUXUXUXUXUXUXUXUXUXUXUXUXUXUXUXUXUXUXUXUXUXUXUXUXUX",
"UXUXUXUXUXUXUXUXUXUXUXUXUXUXUXUXUXUXUXUXUXUXUXUXUXUXUXUX) ) ) ) ) ) ) ) UXUXUXUXUXUXUXUXUXUXUXUXUXUXUXUXUXUXUXUXUXUXUXUXUXUXUXUX",
"UXUXUXUXUXUXUXUXUXUXUXUXUXUXUXUXUXUXUXUXUXUXUXUXUXUXUXUXUX) ) ) ) ) ) UXUXUXUXUXUXUXUXUXUXUXUXUXUXUXUXUXUXUXUXUXUXUXUXUXUXUXUXUX",
"UXUXUXUXUXUXUXUXUXUXUXUXUXUXUXUXUXUXUXUXUXUXUXUXUXUXUXUXUXUX) ) ) ) UXUXUXUXUXUXUXUXUXUXUXUXUXUXUXUXUXUXUXUXUXUXUXUXUXUXUXUXUXUX",
"UXUXUXUXUXUXUXUXUXUXUXUXUXUXUXUXUXUXUXUXUXUXUXUXUXUXUXUXUXUXUX) ) UXUXUXUXUXUXUXUXUXUXUXUXUXUXUXUXUXUXUXUXUXUXUXUXUXUXUXUXUXUXUX",
"UXUXUXUXUXUXUXUXUXUXUXUXUXUXUXUXUXUXUXUXUXUXUXUXUXUXUXUXUXUXUXUXUXUXUXUXUXUXUXUXUXUXUXUXUXUXUXUXUXUXUXUXUXUXUXUXUXUXUXUXUXUXUXUX",
"UXUXUXUXUXUXUXUXUXUXUXUXUXUXUXUXUXUXUXUXUXUXUXUXUXUXUXUXUXUXUXUXUXUXUXUXUXUXUXUXUXUXUXUXUXUXUXUXUXUXUXUXUXUXUXUXUXUXUXUXUXUXUXUX",
"UXUXUXUXUXUXUXUXUXUXUXUXUXUXUXUXUXUXUXUXUXUXUXUXUXUXUXUXUXUXUXUXUXUXUXUXUXUXUXUXUXUXUXUXUXUXUXUXUXUXUXUXUXUXUXUXUXUXUXUXUXUXUXUX",
"UXUXUXUXUXUXUXUXUXUXUXUXUXUXUXUXUXUXUXUXUXUXUXUXUXUXUXUXUXUXUXUXUXUXUXUXUXUXUXUXUXUXUXUXUXUXUXUXUXUXUXUXUXUXUXUXUXUXUXUXUXUXUXUX"
};
