/* XPM */
static char *Xchange32[] = {
/* columns rows colors chars-per-pixel */
"32 32 229 2 ",
"   c #041E5E",
".  c #042D6B",
"X  c #03316E",
"o  c #033F7B",
"O  c #163672",
"+  c #213972",
"@  c #29397B",
"#  c #4B0054",
"$  c #580059",
"%  c #650352",
"&  c #620559",
"*  c #6B065D",
"=  c #620C60",
"-  c #611E69",
";  c #7B1566",
":  c #6C177C",
">  c #711D7F",
",  c #D6493B",
"<  c #F04E23",
"1  c #F15423",
"2  c #F36B2D",
"3  c #F47421",
"4  c #F57A27",
"5  c #ED6130",
"6  c #F26933",
"7  c #890D5E",
"8  c #900F5F",
"9  c #9D0A5D",
"0  c #B60257",
"q  c #BA0056",
"w  c #B40259",
"e  c #8D0068",
"r  c #8E086F",
"t  c #9D0667",
"y  c #900F60",
"u  c #8E1367",
"i  c #990E7A",
"p  c #9E1471",
"a  c #A30763",
"s  c #A4006E",
"d  c #A00C6B",
"f  c #AC0D6B",
"g  c #BD0A65",
"h  c #BD106F",
"j  c #A60473",
"k  c #8A276F",
"l  c #802E77",
"z  c #8D2F74",
"x  c #813279",
"c  c #973077",
"v  c #B2357C",
"b  c #CA075A",
"n  c #E1114F",
"m  c #ED164B",
"M  c #EE194C",
"N  c #EF2E43",
"B  c #EE2655",
"V  c #EF2B54",
"C  c #CD196F",
"Z  c #DE1D60",
"A  c #C7167A",
"S  c #C7187E",
"D  c #D51576",
"F  c #E10F61",
"G  c #ED0F69",
"H  c #ED1160",
"J  c #E4126E",
"K  c #EA106B",
"L  c #C72A78",
"P  c #A66A46",
"I  c #F6841F",
"U  c #F7901B",
"Y  c #FBAF16",
"T  c #FAA61A",
"R  c #FAA919",
"E  c #F68222",
"W  c #F78629",
"Q  c #F89024",
"!  c #FECD07",
"~  c #FDC309",
"^  c #FECB08",
"/  c #FFD503",
"(  c #352E8F",
")  c #32348F",
"_  c #2D3292",
"`  c #203C98",
"'  c #582A8E",
"]  c #513D8F",
"[  c #522D91",
"{  c #433C99",
"}  c #7E3294",
"|  c #004F87",
" . c #0D4A8D",
".. c #00548B",
"X. c #1C4098",
"o. c #005F94",
"O. c #006094",
"+. c #00649C",
"@. c #00779D",
"#. c #00799F",
"$. c #0C4CA2",
"%. c #0A52A2",
"&. c #2C53A5",
"*. c #0366A2",
"=. c #006FA1",
"-. c #0071A2",
";. c #0B73AC",
":. c #007CAF",
">. c #007DB0",
",. c #4F638F",
"<. c #5C6995",
"1. c #655EAA",
"2. c #685BA8",
"3. c #7254A5",
"4. c #735BA9",
"5. c #6E60AB",
"6. c #7C6BB1",
"7. c #7373B3",
"8. c #871F81",
"9. c #AE1E8C",
"0. c #BA1D83",
"q. c #B41C8D",
"w. c #BA1B88",
"e. c #852284",
"r. c #84258D",
"t. c #8D2388",
"y. c #91278F",
"u. c #9B248D",
"i. c #822A90",
"p. c #902690",
"a. c #992590",
"s. c #9B2A90",
"d. c #853395",
"f. c #893D9A",
"g. c #923696",
"h. c #9C3397",
"j. c #A33187",
"k. c #A23188",
"l. c #B7358E",
"z. c #BD389B",
"x. c #C12F80",
"c. c #EC3784",
"v. c #824E89",
"b. c #88578F",
"n. c #834092",
"m. c #BF409F",
"M. c #A16194",
"N. c #8448A0",
"B. c #915FAD",
"V. c #9068AF",
"C. c #9369B0",
"Z. c #9D7BB2",
"A. c #927CB9",
"S. c #A066AB",
"D. c #B175A5",
"F. c #A072B7",
"G. c #AE71B1",
"H. c #C04B98",
"J. c #DA5D94",
"K. c #D25B98",
"L. c #D95D98",
"P. c #EE759A",
"I. c #EF7A9C",
"U. c #C245A1",
"Y. c #C85DAA",
"T. c #D977AA",
"R. c #F16BA7",
"E. c #F26CA8",
"W. c #E876A6",
"Q. c #E771AC",
"!. c #E871AC",
"~. c #F170A0",
"^. c #F172AC",
"/. c #009B93",
"(. c #209F89",
"). c #00A88E",
"_. c #00A894",
"`. c #14AE98",
"'. c #17B09B",
"]. c #19B19B",
"[. c #0084AB",
"{. c #0099BB",
"}. c #349CBE",
"|. c #14A9A3",
" X c #1DB3A1",
".X c #25B5A5",
"XX c #29B8A9",
"oX c #36B3B1",
"OX c #39BCB5",
"+X c #45BEA4",
"@X c #48BFA5",
"#X c #71BFB1",
"$X c #55C3B3",
"%X c #53C1BB",
"&X c #008EC7",
"*X c #0095D3",
"=X c #0099D7",
"-X c #00ACC8",
";X c #0FB0C4",
":X c #0DADDD",
">X c #00ADEE",
",X c #0DB1E2",
"<X c #00AEF0",
"1X c #00B0F1",
"2X c #509EC6",
"3X c #67C7C5",
"4X c #69C8C7",
"5X c #6BC8C8",
"6X c #B88AB7",
"7X c #A19BB8",
"8X c #B692B6",
"9X c #CF9A81",
"0X c #E28C88",
"qX c #C186B6",
"wX c #DD8FB7",
"eX c #DD82B9",
"rX c #E191BA",
"tX c #BB9BCB",
"yX c #AAACC5",
"uX c #D98CC2",
"iX c #C19AC6",
"pX c #E59FC2",
"aX c #C0A3C1",
"sX c #CCB5D1",
"dX c #D5B1D0",
"fX c #E1A5D2",
"gX c #85CCC9",
"hX c #A5E2DB",
"jX c None",
/* pixels */
"jXjXjXjXjXjXjXjXjXjXjXjXjXjXjXjXjXjXjXjXjXjXjXjXjXjXjXjXjXjXjXjX",
"jXjXjXjXjXjXjXjXjXjXjXjXjXjXjX^.^.jXjXjXjXjXjXjXjXjXjXjXjXjXjXjX",
"jXjXjXjXjXjXjXjXjXjXjXjXjXjX^.^.^.^.jXjXjXjXjXjXjXjXjXjXjXjXjXjX",
"jXjXjXjXjXjXjXjXjXjXjXjXjXS.Q.^.^.E.c.jXjXjXjXjXjXjXjXjXjXjXjXjX",
"jXjXjXjXjXjXjXjXjXjXjXjX5.5.S.Q.E.c.K G jXjXjXjXjXjXjXjXjXjXjXjX",
"jXjXjXjXjXjXjXjXjXjXjX1.5.5.5.S.c.G G G K jXjXjXjXjXjXjXjXjXjXjX",
"jXjXjXjXjXjXjXjXjXjX$.&.1.5.4.f.0.K G K D S jXjXjXjXjXjXjXjXjXjX",
"jXjXjXjXjXjXjXjXjX$.$.$.&.2.f.a.a.0.J D S S S jXjXjXjXjXjXjXjXjX",
"jXjXjXjXjXjXjXjX*.%.$.$.$.{ y.u.a.u.h A S S S w.jXjXjXjXjXjXjXjX",
"jXjXjXjXjXjXjX-.-.*.%.$.` _ [ p.u.f q g A S w.q.q.jXjXjXjXjXjXjX",
"jXjXjXjXjXjX#.-.-.-.*.X._ _ _ ' f q q q g w.q.9.q.9.jXjXjXjXjXjX",
"jXjXjXjXjX)./.#.-.=.O. ._ _ ( : t 0 q 0 9 p q.9.9.u.y.jXjXjXjXjX",
"jXjXjXjX).).)./.#.o..... .) > r r d 0 9 y y p 9.s.y.y.y.jXjXjXjX",
"jXjXjX%X`.).)._.{.+.....| @ 6Xj.j.qX; 7 y u u t.y.y.y.g.C.jXjXjX",
"jXjX4X4X%X`._.-X>X=X+.| X   ,.sXdXv.# & 7 u 8.} p.p.g.C.A.A.jXjX",
"jXjX4X4X5X%X;X>X>X<X*Xo       <.b.# # # & i } i.i.d.C.A.A.A.jXjX",
"jXjX4X4X3X$XOX,X>X>X&X+..   + yXaX- # $ e i r.} } 3.6.A.A.A.jXjX",
"jXjXjX3X$X+X+XOX:X&X[.:.+.O 7XM.M.8X= e s s i d.3.4.5.6.A.jXjXjX",
"jXjXjXjX@X@X+X+X|.[.:.:.;.] l % % k a s d s j s.4.5.5.5.jXjXjXjX",
"jXjXjXjXjX@X+X'..XoX}.2X7.N.n.l z v L L m.l.Y.z.h.3.5.jXjXjXjXjX",
"jXjXjXjXjXjX]._..XhXgXZ.F.tXtXtXwXrXpXrXT.uXfXU.q.h.jXjXjXjXjXjX",
"jXjXjXjXjXjXjX_.XX#X9X0XD.B.G.W.~.L.K.J.I.P.eXm.q.jXjXjXjXjXjXjX",
"jXjXjXjXjXjXjXjX(.P < < , c C H H F b n M m Z 0.jXjXjXjXjXjXjXjX",
"jXjXjXjXjXjXjXjXjX< < < 1 5 B H H V 6 N M M m jXjXjXjXjXjXjXjXjX",
"jXjXjXjXjXjXjXjXjXjX< 1 3 I 2 B V W R W N m jXjXjXjXjXjXjXjXjXjX",
"jXjXjXjXjXjXjXjXjXjXjX3 I E I 4 Q T T T W jXjXjXjXjXjXjXjXjXjXjX",
"jXjXjXjXjXjXjXjXjXjXjXjXI E U ~ ! Y T T jXjXjXjXjXjXjXjXjXjXjXjX",
"jXjXjXjXjXjXjXjXjXjXjXjXjXU ~ / / ^ Y jXjXjXjXjXjXjXjXjXjXjXjXjX",
"jXjXjXjXjXjXjXjXjXjXjXjXjXjX/ / / / jXjXjXjXjXjXjXjXjXjXjXjXjXjX",
"jXjXjXjXjXjXjXjXjXjXjXjXjXjXjX/ / jXjXjXjXjXjXjXjXjXjXjXjXjXjXjX",
"jXjXjXjXjXjXjXjXjXjXjXjXjXjXjXjXjXjXjXjXjXjXjXjXjXjXjXjXjXjXjXjX",
"jXjXjXjXjXjXjXjXjXjXjXjXjXjXjXjXjXjXjXjXjXjXjXjXjXjXjXjXjXjXjXjX"
};
